<svg width="1969" height="872" viewBox="0 0 1969 872" fill="none" xmlns="http://www.w3.org/2000/svg">
<path d="M637.917 594.924C637.917 561.879 629.325 541.06 611.15 518.258L565.217 556.922C575.131 568.818 577.113 576.749 577.444 595.255C578.435 631.605 548.363 660.355 512.674 660.355C476.985 660.355 447.574 630.944 447.904 595.255C447.904 589.637 449.226 581.376 450.878 574.436L402.962 534.12C395.362 546.678 388.422 559.566 387.761 594.924C386.439 662.999 443.608 719.837 512.674 719.837C581.079 719.837 637.917 663.99 637.917 594.924Z" fill="white"/>
<path d="M700.374 443.245V418.791L513.004 576.088V551.635L700.374 394.337V372.857L597.602 304.783C599.915 312.383 600.906 328.576 591.323 349.395C579.096 375.831 548.033 396.65 538.119 402.598C526.223 409.868 520.275 417.469 518.292 423.748C517.3 427.383 515.648 432.67 516.97 438.618C527.545 440.601 539.441 449.854 539.441 466.046C539.441 481.908 526.553 494.796 510.691 494.796C494.829 494.796 481.611 481.908 481.942 466.046C482.272 454.48 489.212 441.592 504.743 437.627C501.108 425.73 499.456 421.104 499.456 405.903C499.786 376.823 530.849 352.038 530.849 352.038C552.659 333.202 566.869 316.349 569.513 299.165C572.156 282.642 564.886 261.823 564.886 261.823C572.487 264.137 576.122 267.111 580.418 271.737C584.053 275.372 587.688 281.651 587.688 281.651C592.314 267.441 590.993 256.206 588.679 246.953C586.036 236.709 581.74 226.134 570.835 216.551C558.608 205.646 548.363 203.332 548.363 203.332C551.338 208.95 552.99 216.881 551.668 233.074C550.016 249.597 546.05 258.849 534.815 273.72C524.571 287.599 503.752 304.452 491.525 321.306C479.959 336.837 475.332 351.047 474.341 363.274C473.35 381.779 480.95 401.937 480.95 401.937C473.68 397.972 465.088 390.041 459.47 379.136C453.192 367.239 450.218 356.995 449.887 337.168C449.557 319.984 456.166 295.2 469.715 278.016C479.298 266.119 503.091 242.987 511.683 225.143C520.275 206.967 518.953 197.384 518.953 189.784C518.953 182.514 515.318 171.609 515.318 171.609C520.275 172.6 527.214 176.896 529.197 178.879C532.832 182.183 536.137 185.488 536.137 185.488C536.797 179.87 537.458 170.617 535.145 158.06C531.51 139.224 522.918 128.319 510.691 119.066C497.473 108.822 485.246 109.483 485.246 109.483C490.533 116.422 494.499 123.692 496.482 134.597C498.464 144.841 498.134 157.399 492.847 169.956C486.237 185.157 468.723 198.706 455.505 211.924C442.287 225.143 430.06 239.022 421.137 257.858C410.232 280.329 409.241 297.182 413.206 319.323C417.833 345.099 432.042 361.622 432.042 361.622C421.468 357.656 412.545 351.047 406.267 344.438C400.649 338.49 396.683 331.55 393.709 323.949L323.652 371.535V443.245L512.013 601.534L565.217 556.922L611.15 518.258L700.374 443.245ZM1721.16 549.652V498.431H1803.44V455.802H1721.16V409.207H1810.05V366.578H1661.01V592.281H1810.71V549.652H1721.16ZM1520.24 366.248H1460.1V592.281H1520.24V366.248ZM908.562 547.339H823.304V366.248H763.161V592.281H908.562V547.339ZM1233.73 592.281H1293.88V411.19H1349.39V366.578H1178.22V411.19H1233.73V592.281ZM1067.51 366.248H1007.37V592.281H1067.51V366.248ZM188.826 365.918H117.116V591.95H177.26V541.39H195.435C255.909 542.712 290.937 499.092 290.276 452.497C289.285 401.937 257.561 365.918 188.826 365.918ZM192.791 495.787H177.26V408.877H193.122C213.94 408.877 232.116 428.704 232.116 451.836C231.785 475.299 213.61 495.787 192.791 495.787Z" fill="white"/>
</svg>
